<?xml version="1.0" encoding="utf-8"?>
<svg xmlns="http://www.w3.org/2000/svg" xmlns:xlink="http://www.w3.org/1999/xlink" width="600" height="400" viewBox="0 0 2400 1600">
<defs>
  <clipPath id="clip900">
    <rect x="0" y="0" width="2400" height="1600"/>
  </clipPath>
</defs>
<path clip-path="url(#clip900)" d="M0 1600 L2400 1600 L2400 0 L0 0  Z" fill="#ffffff" fill-rule="evenodd" fill-opacity="1"/>
<defs>
  <clipPath id="clip901">
    <rect x="480" y="0" width="1681" height="1600"/>
  </clipPath>
</defs>
<path clip-path="url(#clip900)" d="M156.112 1486.45 L2352.76 1486.45 L2352.76 47.2441 L156.112 47.2441  Z" fill="#ffffff" fill-rule="evenodd" fill-opacity="1"/>
<defs>
  <clipPath id="clip902">
    <rect x="156" y="47" width="2198" height="1440"/>
  </clipPath>
</defs>
<polyline clip-path="url(#clip902)" style="stroke:#000000; stroke-linecap:round; stroke-linejoin:round; stroke-width:2; stroke-opacity:0.1; fill:none" points="279.865,1486.45 279.865,47.2441 "/>
<polyline clip-path="url(#clip902)" style="stroke:#000000; stroke-linecap:round; stroke-linejoin:round; stroke-width:2; stroke-opacity:0.1; fill:none" points="649.508,1486.45 649.508,47.2441 "/>
<polyline clip-path="url(#clip902)" style="stroke:#000000; stroke-linecap:round; stroke-linejoin:round; stroke-width:2; stroke-opacity:0.1; fill:none" points="1019.15,1486.45 1019.15,47.2441 "/>
<polyline clip-path="url(#clip902)" style="stroke:#000000; stroke-linecap:round; stroke-linejoin:round; stroke-width:2; stroke-opacity:0.1; fill:none" points="1388.79,1486.45 1388.79,47.2441 "/>
<polyline clip-path="url(#clip902)" style="stroke:#000000; stroke-linecap:round; stroke-linejoin:round; stroke-width:2; stroke-opacity:0.1; fill:none" points="1758.44,1486.45 1758.44,47.2441 "/>
<polyline clip-path="url(#clip902)" style="stroke:#000000; stroke-linecap:round; stroke-linejoin:round; stroke-width:2; stroke-opacity:0.1; fill:none" points="2128.08,1486.45 2128.08,47.2441 "/>
<polyline clip-path="url(#clip902)" style="stroke:#000000; stroke-linecap:round; stroke-linejoin:round; stroke-width:2; stroke-opacity:0.1; fill:none" points="156.112,1300.29 2352.76,1300.29 "/>
<polyline clip-path="url(#clip902)" style="stroke:#000000; stroke-linecap:round; stroke-linejoin:round; stroke-width:2; stroke-opacity:0.1; fill:none" points="156.112,1019.32 2352.76,1019.32 "/>
<polyline clip-path="url(#clip902)" style="stroke:#000000; stroke-linecap:round; stroke-linejoin:round; stroke-width:2; stroke-opacity:0.1; fill:none" points="156.112,738.354 2352.76,738.354 "/>
<polyline clip-path="url(#clip902)" style="stroke:#000000; stroke-linecap:round; stroke-linejoin:round; stroke-width:2; stroke-opacity:0.1; fill:none" points="156.112,457.386 2352.76,457.386 "/>
<polyline clip-path="url(#clip902)" style="stroke:#000000; stroke-linecap:round; stroke-linejoin:round; stroke-width:2; stroke-opacity:0.1; fill:none" points="156.112,176.417 2352.76,176.417 "/>
<polyline clip-path="url(#clip900)" style="stroke:#000000; stroke-linecap:round; stroke-linejoin:round; stroke-width:4; stroke-opacity:1; fill:none" points="156.112,1486.45 2352.76,1486.45 "/>
<polyline clip-path="url(#clip900)" style="stroke:#000000; stroke-linecap:round; stroke-linejoin:round; stroke-width:4; stroke-opacity:1; fill:none" points="279.865,1486.45 279.865,1467.55 "/>
<polyline clip-path="url(#clip900)" style="stroke:#000000; stroke-linecap:round; stroke-linejoin:round; stroke-width:4; stroke-opacity:1; fill:none" points="649.508,1486.45 649.508,1467.55 "/>
<polyline clip-path="url(#clip900)" style="stroke:#000000; stroke-linecap:round; stroke-linejoin:round; stroke-width:4; stroke-opacity:1; fill:none" points="1019.15,1486.45 1019.15,1467.55 "/>
<polyline clip-path="url(#clip900)" style="stroke:#000000; stroke-linecap:round; stroke-linejoin:round; stroke-width:4; stroke-opacity:1; fill:none" points="1388.79,1486.45 1388.79,1467.55 "/>
<polyline clip-path="url(#clip900)" style="stroke:#000000; stroke-linecap:round; stroke-linejoin:round; stroke-width:4; stroke-opacity:1; fill:none" points="1758.44,1486.45 1758.44,1467.55 "/>
<polyline clip-path="url(#clip900)" style="stroke:#000000; stroke-linecap:round; stroke-linejoin:round; stroke-width:4; stroke-opacity:1; fill:none" points="2128.08,1486.45 2128.08,1467.55 "/>
<path clip-path="url(#clip900)" d="M226.891 1532.02 L256.567 1532.02 L256.567 1535.95 L226.891 1535.95 L226.891 1532.02 Z" fill="#000000" fill-rule="nonzero" fill-opacity="1" /><path clip-path="url(#clip900)" d="M276.659 1517.37 Q273.048 1517.37 271.22 1520.93 Q269.414 1524.47 269.414 1531.6 Q269.414 1538.71 271.22 1542.27 Q273.048 1545.82 276.659 1545.82 Q280.294 1545.82 282.099 1542.27 Q283.928 1538.71 283.928 1531.6 Q283.928 1524.47 282.099 1520.93 Q280.294 1517.37 276.659 1517.37 M276.659 1513.66 Q282.47 1513.66 285.525 1518.27 Q288.604 1522.85 288.604 1531.6 Q288.604 1540.33 285.525 1544.94 Q282.47 1549.52 276.659 1549.52 Q270.849 1549.52 267.771 1544.94 Q264.715 1540.33 264.715 1531.6 Q264.715 1522.85 267.771 1518.27 Q270.849 1513.66 276.659 1513.66 Z" fill="#000000" fill-rule="nonzero" fill-opacity="1" /><path clip-path="url(#clip900)" d="M296.821 1542.97 L301.706 1542.97 L301.706 1548.85 L296.821 1548.85 L296.821 1542.97 Z" fill="#000000" fill-rule="nonzero" fill-opacity="1" /><path clip-path="url(#clip900)" d="M311.937 1514.29 L330.293 1514.29 L330.293 1518.22 L316.219 1518.22 L316.219 1526.7 Q317.238 1526.35 318.256 1526.19 Q319.275 1526 320.293 1526 Q326.08 1526 329.46 1529.17 Q332.84 1532.34 332.84 1537.76 Q332.84 1543.34 329.367 1546.44 Q325.895 1549.52 319.576 1549.52 Q317.4 1549.52 315.131 1549.15 Q312.886 1548.78 310.479 1548.04 L310.479 1543.34 Q312.562 1544.47 314.784 1545.03 Q317.006 1545.58 319.483 1545.58 Q323.488 1545.58 325.826 1543.48 Q328.164 1541.37 328.164 1537.76 Q328.164 1534.15 325.826 1532.04 Q323.488 1529.94 319.483 1529.94 Q317.608 1529.94 315.733 1530.35 Q313.881 1530.77 311.937 1531.65 L311.937 1514.29 Z" fill="#000000" fill-rule="nonzero" fill-opacity="1" /><path clip-path="url(#clip900)" d="M626.893 1517.37 Q623.282 1517.37 621.453 1520.93 Q619.647 1524.47 619.647 1531.6 Q619.647 1538.71 621.453 1542.27 Q623.282 1545.82 626.893 1545.82 Q630.527 1545.82 632.332 1542.27 Q634.161 1538.71 634.161 1531.6 Q634.161 1524.47 632.332 1520.93 Q630.527 1517.37 626.893 1517.37 M626.893 1513.66 Q632.703 1513.66 635.758 1518.27 Q638.837 1522.85 638.837 1531.6 Q638.837 1540.33 635.758 1544.94 Q632.703 1549.52 626.893 1549.52 Q621.083 1549.52 618.004 1544.94 Q614.948 1540.33 614.948 1531.6 Q614.948 1522.85 618.004 1518.27 Q621.083 1513.66 626.893 1513.66 Z" fill="#000000" fill-rule="nonzero" fill-opacity="1" /><path clip-path="url(#clip900)" d="M647.055 1542.97 L651.939 1542.97 L651.939 1548.85 L647.055 1548.85 L647.055 1542.97 Z" fill="#000000" fill-rule="nonzero" fill-opacity="1" /><path clip-path="url(#clip900)" d="M672.124 1517.37 Q668.513 1517.37 666.684 1520.93 Q664.879 1524.47 664.879 1531.6 Q664.879 1538.71 666.684 1542.27 Q668.513 1545.82 672.124 1545.82 Q675.758 1545.82 677.564 1542.27 Q679.392 1538.71 679.392 1531.6 Q679.392 1524.47 677.564 1520.93 Q675.758 1517.37 672.124 1517.37 M672.124 1513.66 Q677.934 1513.66 680.99 1518.27 Q684.068 1522.85 684.068 1531.6 Q684.068 1540.33 680.99 1544.94 Q677.934 1549.52 672.124 1549.52 Q666.314 1549.52 663.235 1544.94 Q660.18 1540.33 660.18 1531.6 Q660.18 1522.85 663.235 1518.27 Q666.314 1513.66 672.124 1513.66 Z" fill="#000000" fill-rule="nonzero" fill-opacity="1" /><path clip-path="url(#clip900)" d="M997.033 1517.37 Q993.422 1517.37 991.593 1520.93 Q989.788 1524.47 989.788 1531.6 Q989.788 1538.71 991.593 1542.27 Q993.422 1545.82 997.033 1545.82 Q1000.67 1545.82 1002.47 1542.27 Q1004.3 1538.71 1004.3 1531.6 Q1004.3 1524.47 1002.47 1520.93 Q1000.67 1517.37 997.033 1517.37 M997.033 1513.66 Q1002.84 1513.66 1005.9 1518.27 Q1008.98 1522.85 1008.98 1531.6 Q1008.98 1540.33 1005.9 1544.94 Q1002.84 1549.52 997.033 1549.52 Q991.223 1549.52 988.144 1544.94 Q985.089 1540.33 985.089 1531.6 Q985.089 1522.85 988.144 1518.27 Q991.223 1513.66 997.033 1513.66 Z" fill="#000000" fill-rule="nonzero" fill-opacity="1" /><path clip-path="url(#clip900)" d="M1017.2 1542.97 L1022.08 1542.97 L1022.08 1548.85 L1017.2 1548.85 L1017.2 1542.97 Z" fill="#000000" fill-rule="nonzero" fill-opacity="1" /><path clip-path="url(#clip900)" d="M1032.31 1514.29 L1050.67 1514.29 L1050.67 1518.22 L1036.59 1518.22 L1036.59 1526.7 Q1037.61 1526.35 1038.63 1526.19 Q1039.65 1526 1040.67 1526 Q1046.45 1526 1049.83 1529.17 Q1053.21 1532.34 1053.21 1537.76 Q1053.21 1543.34 1049.74 1546.44 Q1046.27 1549.52 1039.95 1549.52 Q1037.77 1549.52 1035.51 1549.15 Q1033.26 1548.78 1030.85 1548.04 L1030.85 1543.34 Q1032.94 1544.47 1035.16 1545.03 Q1037.38 1545.58 1039.86 1545.58 Q1043.86 1545.58 1046.2 1543.48 Q1048.54 1541.37 1048.54 1537.76 Q1048.54 1534.15 1046.2 1532.04 Q1043.86 1529.94 1039.86 1529.94 Q1037.98 1529.94 1036.11 1530.35 Q1034.26 1530.77 1032.31 1531.65 L1032.31 1514.29 Z" fill="#000000" fill-rule="nonzero" fill-opacity="1" /><path clip-path="url(#clip900)" d="M1355.95 1544.91 L1363.59 1544.91 L1363.59 1518.55 L1355.28 1520.21 L1355.28 1515.95 L1363.54 1514.29 L1368.22 1514.29 L1368.22 1544.91 L1375.85 1544.91 L1375.85 1548.85 L1355.95 1548.85 L1355.95 1544.91 Z" fill="#000000" fill-rule="nonzero" fill-opacity="1" /><path clip-path="url(#clip900)" d="M1385.3 1542.97 L1390.18 1542.97 L1390.18 1548.85 L1385.3 1548.85 L1385.3 1542.97 Z" fill="#000000" fill-rule="nonzero" fill-opacity="1" /><path clip-path="url(#clip900)" d="M1410.37 1517.37 Q1406.76 1517.37 1404.93 1520.93 Q1403.12 1524.47 1403.12 1531.6 Q1403.12 1538.71 1404.93 1542.27 Q1406.76 1545.82 1410.37 1545.82 Q1414 1545.82 1415.81 1542.27 Q1417.64 1538.71 1417.64 1531.6 Q1417.64 1524.47 1415.81 1520.93 Q1414 1517.37 1410.37 1517.37 M1410.37 1513.66 Q1416.18 1513.66 1419.23 1518.27 Q1422.31 1522.85 1422.31 1531.6 Q1422.31 1540.33 1419.23 1544.94 Q1416.18 1549.52 1410.37 1549.52 Q1404.56 1549.52 1401.48 1544.94 Q1398.42 1540.33 1398.42 1531.6 Q1398.42 1522.85 1401.48 1518.27 Q1404.56 1513.66 1410.37 1513.66 Z" fill="#000000" fill-rule="nonzero" fill-opacity="1" /><path clip-path="url(#clip900)" d="M1726.09 1544.91 L1733.73 1544.91 L1733.73 1518.55 L1725.42 1520.21 L1725.42 1515.95 L1733.68 1514.29 L1738.36 1514.29 L1738.36 1544.91 L1745.99 1544.91 L1745.99 1548.85 L1726.09 1548.85 L1726.09 1544.91 Z" fill="#000000" fill-rule="nonzero" fill-opacity="1" /><path clip-path="url(#clip900)" d="M1755.44 1542.97 L1760.32 1542.97 L1760.32 1548.85 L1755.44 1548.85 L1755.44 1542.97 Z" fill="#000000" fill-rule="nonzero" fill-opacity="1" /><path clip-path="url(#clip900)" d="M1770.55 1514.29 L1788.91 1514.29 L1788.91 1518.22 L1774.84 1518.22 L1774.84 1526.7 Q1775.86 1526.35 1776.87 1526.19 Q1777.89 1526 1778.91 1526 Q1784.7 1526 1788.08 1529.17 Q1791.46 1532.34 1791.46 1537.76 Q1791.46 1543.34 1787.99 1546.44 Q1784.51 1549.52 1778.19 1549.52 Q1776.02 1549.52 1773.75 1549.15 Q1771.5 1548.78 1769.1 1548.04 L1769.1 1543.34 Q1771.18 1544.47 1773.4 1545.03 Q1775.62 1545.58 1778.1 1545.58 Q1782.11 1545.58 1784.44 1543.48 Q1786.78 1541.37 1786.78 1537.76 Q1786.78 1534.15 1784.44 1532.04 Q1782.11 1529.94 1778.1 1529.94 Q1776.23 1529.94 1774.35 1530.35 Q1772.5 1530.77 1770.55 1531.65 L1770.55 1514.29 Z" fill="#000000" fill-rule="nonzero" fill-opacity="1" /><path clip-path="url(#clip900)" d="M2099.32 1544.91 L2115.64 1544.91 L2115.64 1548.85 L2093.69 1548.85 L2093.69 1544.91 Q2096.36 1542.16 2100.94 1537.53 Q2105.55 1532.88 2106.73 1531.53 Q2108.97 1529.01 2109.85 1527.27 Q2110.75 1525.51 2110.75 1523.82 Q2110.75 1521.07 2108.81 1519.33 Q2106.89 1517.6 2103.79 1517.6 Q2101.59 1517.6 2099.13 1518.36 Q2096.7 1519.13 2093.92 1520.68 L2093.92 1515.95 Q2096.75 1514.82 2099.2 1514.24 Q2101.66 1513.66 2103.69 1513.66 Q2109.06 1513.66 2112.26 1516.35 Q2115.45 1519.03 2115.45 1523.52 Q2115.45 1525.65 2114.64 1527.57 Q2113.86 1529.47 2111.75 1532.07 Q2111.17 1532.74 2108.07 1535.95 Q2104.97 1539.15 2099.32 1544.91 Z" fill="#000000" fill-rule="nonzero" fill-opacity="1" /><path clip-path="url(#clip900)" d="M2125.45 1542.97 L2130.34 1542.97 L2130.34 1548.85 L2125.45 1548.85 L2125.45 1542.97 Z" fill="#000000" fill-rule="nonzero" fill-opacity="1" /><path clip-path="url(#clip900)" d="M2150.52 1517.37 Q2146.91 1517.37 2145.08 1520.93 Q2143.28 1524.47 2143.28 1531.6 Q2143.28 1538.71 2145.08 1542.27 Q2146.91 1545.82 2150.52 1545.82 Q2154.16 1545.82 2155.96 1542.27 Q2157.79 1538.71 2157.79 1531.6 Q2157.79 1524.47 2155.96 1520.93 Q2154.16 1517.37 2150.52 1517.37 M2150.52 1513.66 Q2156.33 1513.66 2159.39 1518.27 Q2162.47 1522.85 2162.47 1531.6 Q2162.47 1540.33 2159.39 1544.94 Q2156.33 1549.52 2150.52 1549.52 Q2144.71 1549.52 2141.63 1544.94 Q2138.58 1540.33 2138.58 1531.6 Q2138.58 1522.85 2141.63 1518.27 Q2144.71 1513.66 2150.52 1513.66 Z" fill="#000000" fill-rule="nonzero" fill-opacity="1" /><polyline clip-path="url(#clip900)" style="stroke:#000000; stroke-linecap:round; stroke-linejoin:round; stroke-width:4; stroke-opacity:1; fill:none" points="156.112,1486.45 156.112,47.2441 "/>
<polyline clip-path="url(#clip900)" style="stroke:#000000; stroke-linecap:round; stroke-linejoin:round; stroke-width:4; stroke-opacity:1; fill:none" points="156.112,1300.29 175.01,1300.29 "/>
<polyline clip-path="url(#clip900)" style="stroke:#000000; stroke-linecap:round; stroke-linejoin:round; stroke-width:4; stroke-opacity:1; fill:none" points="156.112,1019.32 175.01,1019.32 "/>
<polyline clip-path="url(#clip900)" style="stroke:#000000; stroke-linecap:round; stroke-linejoin:round; stroke-width:4; stroke-opacity:1; fill:none" points="156.112,738.354 175.01,738.354 "/>
<polyline clip-path="url(#clip900)" style="stroke:#000000; stroke-linecap:round; stroke-linejoin:round; stroke-width:4; stroke-opacity:1; fill:none" points="156.112,457.386 175.01,457.386 "/>
<polyline clip-path="url(#clip900)" style="stroke:#000000; stroke-linecap:round; stroke-linejoin:round; stroke-width:4; stroke-opacity:1; fill:none" points="156.112,176.417 175.01,176.417 "/>
<path clip-path="url(#clip900)" d="M62.9365 1286.09 Q59.3254 1286.09 57.4967 1289.65 Q55.6912 1293.2 55.6912 1300.33 Q55.6912 1307.43 57.4967 1311 Q59.3254 1314.54 62.9365 1314.54 Q66.5707 1314.54 68.3763 1311 Q70.205 1307.43 70.205 1300.33 Q70.205 1293.2 68.3763 1289.65 Q66.5707 1286.09 62.9365 1286.09 M62.9365 1282.39 Q68.7467 1282.39 71.8022 1286.99 Q74.8809 1291.58 74.8809 1300.33 Q74.8809 1309.05 71.8022 1313.66 Q68.7467 1318.24 62.9365 1318.24 Q57.1264 1318.24 54.0477 1313.66 Q50.9921 1309.05 50.9921 1300.33 Q50.9921 1291.58 54.0477 1286.99 Q57.1264 1282.39 62.9365 1282.39 Z" fill="#000000" fill-rule="nonzero" fill-opacity="1" /><path clip-path="url(#clip900)" d="M83.0984 1311.69 L87.9827 1311.69 L87.9827 1317.57 L83.0984 1317.57 L83.0984 1311.69 Z" fill="#000000" fill-rule="nonzero" fill-opacity="1" /><path clip-path="url(#clip900)" d="M108.168 1286.09 Q104.557 1286.09 102.728 1289.65 Q100.922 1293.2 100.922 1300.33 Q100.922 1307.43 102.728 1311 Q104.557 1314.54 108.168 1314.54 Q111.802 1314.54 113.608 1311 Q115.436 1307.43 115.436 1300.33 Q115.436 1293.2 113.608 1289.65 Q111.802 1286.09 108.168 1286.09 M108.168 1282.39 Q113.978 1282.39 117.033 1286.99 Q120.112 1291.58 120.112 1300.33 Q120.112 1309.05 117.033 1313.66 Q113.978 1318.24 108.168 1318.24 Q102.358 1318.24 99.2789 1313.66 Q96.2234 1309.05 96.2234 1300.33 Q96.2234 1291.58 99.2789 1286.99 Q102.358 1282.39 108.168 1282.39 Z" fill="#000000" fill-rule="nonzero" fill-opacity="1" /><path clip-path="url(#clip900)" d="M63.9319 1005.12 Q60.3208 1005.12 58.4921 1008.69 Q56.6865 1012.23 56.6865 1019.36 Q56.6865 1026.46 58.4921 1030.03 Q60.3208 1033.57 63.9319 1033.57 Q67.5661 1033.57 69.3717 1030.03 Q71.2004 1026.46 71.2004 1019.36 Q71.2004 1012.23 69.3717 1008.69 Q67.5661 1005.12 63.9319 1005.12 M63.9319 1001.42 Q69.742 1001.42 72.7976 1006.02 Q75.8763 1010.61 75.8763 1019.36 Q75.8763 1028.08 72.7976 1032.69 Q69.742 1037.27 63.9319 1037.27 Q58.1217 1037.27 55.043 1032.69 Q51.9875 1028.08 51.9875 1019.36 Q51.9875 1010.61 55.043 1006.02 Q58.1217 1001.42 63.9319 1001.42 Z" fill="#000000" fill-rule="nonzero" fill-opacity="1" /><path clip-path="url(#clip900)" d="M84.0938 1030.72 L88.978 1030.72 L88.978 1036.6 L84.0938 1036.6 L84.0938 1030.72 Z" fill="#000000" fill-rule="nonzero" fill-opacity="1" /><path clip-path="url(#clip900)" d="M99.2095 1002.04 L117.566 1002.04 L117.566 1005.98 L103.492 1005.98 L103.492 1014.45 Q104.51 1014.1 105.529 1013.94 Q106.547 1013.76 107.566 1013.76 Q113.353 1013.76 116.733 1016.93 Q120.112 1020.1 120.112 1025.51 Q120.112 1031.09 116.64 1034.2 Q113.168 1037.27 106.848 1037.27 Q104.672 1037.27 102.404 1036.9 Q100.159 1036.53 97.7511 1035.79 L97.7511 1031.09 Q99.8345 1032.23 102.057 1032.78 Q104.279 1033.34 106.756 1033.34 Q110.76 1033.34 113.098 1031.23 Q115.436 1029.13 115.436 1025.51 Q115.436 1021.9 113.098 1019.8 Q110.76 1017.69 106.756 1017.69 Q104.881 1017.69 103.006 1018.11 Q101.154 1018.52 99.2095 1019.4 L99.2095 1002.04 Z" fill="#000000" fill-rule="nonzero" fill-opacity="1" /><path clip-path="url(#clip900)" d="M53.7467 751.699 L61.3856 751.699 L61.3856 725.333 L53.0754 727 L53.0754 722.741 L61.3393 721.074 L66.0152 721.074 L66.0152 751.699 L73.654 751.699 L73.654 755.634 L53.7467 755.634 L53.7467 751.699 Z" fill="#000000" fill-rule="nonzero" fill-opacity="1" /><path clip-path="url(#clip900)" d="M83.0984 749.754 L87.9827 749.754 L87.9827 755.634 L83.0984 755.634 L83.0984 749.754 Z" fill="#000000" fill-rule="nonzero" fill-opacity="1" /><path clip-path="url(#clip900)" d="M108.168 724.153 Q104.557 724.153 102.728 727.718 Q100.922 731.259 100.922 738.389 Q100.922 745.495 102.728 749.06 Q104.557 752.602 108.168 752.602 Q111.802 752.602 113.608 749.06 Q115.436 745.495 115.436 738.389 Q115.436 731.259 113.608 727.718 Q111.802 724.153 108.168 724.153 M108.168 720.449 Q113.978 720.449 117.033 725.056 Q120.112 729.639 120.112 738.389 Q120.112 747.116 117.033 751.722 Q113.978 756.305 108.168 756.305 Q102.358 756.305 99.2789 751.722 Q96.2234 747.116 96.2234 738.389 Q96.2234 729.639 99.2789 725.056 Q102.358 720.449 108.168 720.449 Z" fill="#000000" fill-rule="nonzero" fill-opacity="1" /><path clip-path="url(#clip900)" d="M54.7421 470.731 L62.381 470.731 L62.381 444.365 L54.0708 446.032 L54.0708 441.772 L62.3347 440.106 L67.0106 440.106 L67.0106 470.731 L74.6494 470.731 L74.6494 474.666 L54.7421 474.666 L54.7421 470.731 Z" fill="#000000" fill-rule="nonzero" fill-opacity="1" /><path clip-path="url(#clip900)" d="M84.0938 468.786 L88.978 468.786 L88.978 474.666 L84.0938 474.666 L84.0938 468.786 Z" fill="#000000" fill-rule="nonzero" fill-opacity="1" /><path clip-path="url(#clip900)" d="M99.2095 440.106 L117.566 440.106 L117.566 444.041 L103.492 444.041 L103.492 452.513 Q104.51 452.166 105.529 452.004 Q106.547 451.819 107.566 451.819 Q113.353 451.819 116.733 454.99 Q120.112 458.161 120.112 463.578 Q120.112 469.156 116.64 472.258 Q113.168 475.337 106.848 475.337 Q104.672 475.337 102.404 474.967 Q100.159 474.596 97.7511 473.856 L97.7511 469.156 Q99.8345 470.291 102.057 470.846 Q104.279 471.402 106.756 471.402 Q110.76 471.402 113.098 469.295 Q115.436 467.189 115.436 463.578 Q115.436 459.967 113.098 457.86 Q110.76 455.754 106.756 455.754 Q104.881 455.754 103.006 456.17 Q101.154 456.587 99.2095 457.467 L99.2095 440.106 Z" fill="#000000" fill-rule="nonzero" fill-opacity="1" /><path clip-path="url(#clip900)" d="M56.9643 189.762 L73.2837 189.762 L73.2837 193.697 L51.3393 193.697 L51.3393 189.762 Q54.0014 187.008 58.5847 182.378 Q63.1911 177.725 64.3717 176.383 Q66.617 173.86 67.4967 172.123 Q68.3994 170.364 68.3994 168.674 Q68.3994 165.92 66.455 164.184 Q64.5337 162.448 61.4319 162.448 Q59.2328 162.448 56.7791 163.211 Q54.3486 163.975 51.5708 165.526 L51.5708 160.804 Q54.3949 159.67 56.8486 159.091 Q59.3023 158.512 61.3393 158.512 Q66.7096 158.512 69.9041 161.198 Q73.0985 163.883 73.0985 168.373 Q73.0985 170.503 72.2883 172.424 Q71.5013 174.322 69.3948 176.915 Q68.8161 177.586 65.7143 180.804 Q62.6124 183.998 56.9643 189.762 Z" fill="#000000" fill-rule="nonzero" fill-opacity="1" /><path clip-path="url(#clip900)" d="M83.0984 187.818 L87.9827 187.818 L87.9827 193.697 L83.0984 193.697 L83.0984 187.818 Z" fill="#000000" fill-rule="nonzero" fill-opacity="1" /><path clip-path="url(#clip900)" d="M108.168 162.216 Q104.557 162.216 102.728 165.781 Q100.922 169.322 100.922 176.452 Q100.922 183.559 102.728 187.123 Q104.557 190.665 108.168 190.665 Q111.802 190.665 113.608 187.123 Q115.436 183.559 115.436 176.452 Q115.436 169.322 113.608 165.781 Q111.802 162.216 108.168 162.216 M108.168 158.512 Q113.978 158.512 117.033 163.119 Q120.112 167.702 120.112 176.452 Q120.112 185.179 117.033 189.785 Q113.978 194.369 108.168 194.369 Q102.358 194.369 99.2789 189.785 Q96.2234 185.179 96.2234 176.452 Q96.2234 167.702 99.2789 163.119 Q102.358 158.512 108.168 158.512 Z" fill="#000000" fill-rule="nonzero" fill-opacity="1" /><circle clip-path="url(#clip902)" cx="986.06" cy="1244.24" r="14.4" fill="#009af9" fill-rule="evenodd" fill-opacity="1" stroke="#000000" stroke-opacity="1" stroke-width="3.2"/>
<circle clip-path="url(#clip902)" cx="1054.37" cy="1170.97" r="14.4" fill="#009af9" fill-rule="evenodd" fill-opacity="1" stroke="#000000" stroke-opacity="1" stroke-width="3.2"/>
<circle clip-path="url(#clip902)" cx="1221.24" cy="945.565" r="14.4" fill="#009af9" fill-rule="evenodd" fill-opacity="1" stroke="#000000" stroke-opacity="1" stroke-width="3.2"/>
<circle clip-path="url(#clip902)" cx="1344.87" cy="1245.98" r="14.4" fill="#009af9" fill-rule="evenodd" fill-opacity="1" stroke="#000000" stroke-opacity="1" stroke-width="3.2"/>
<circle clip-path="url(#clip902)" cx="671.426" cy="908.053" r="14.4" fill="#009af9" fill-rule="evenodd" fill-opacity="1" stroke="#000000" stroke-opacity="1" stroke-width="3.2"/>
<circle clip-path="url(#clip902)" cx="1201.71" cy="1036.04" r="14.4" fill="#009af9" fill-rule="evenodd" fill-opacity="1" stroke="#000000" stroke-opacity="1" stroke-width="3.2"/>
<circle clip-path="url(#clip902)" cx="1201.61" cy="1251.43" r="14.4" fill="#009af9" fill-rule="evenodd" fill-opacity="1" stroke="#000000" stroke-opacity="1" stroke-width="3.2"/>
<circle clip-path="url(#clip902)" cx="1371.55" cy="1102.77" r="14.4" fill="#009af9" fill-rule="evenodd" fill-opacity="1" stroke="#000000" stroke-opacity="1" stroke-width="3.2"/>
<circle clip-path="url(#clip902)" cx="892.981" cy="1191.67" r="14.4" fill="#009af9" fill-rule="evenodd" fill-opacity="1" stroke="#000000" stroke-opacity="1" stroke-width="3.2"/>
<circle clip-path="url(#clip902)" cx="1146.31" cy="1234.55" r="14.4" fill="#009af9" fill-rule="evenodd" fill-opacity="1" stroke="#000000" stroke-opacity="1" stroke-width="3.2"/>
<circle clip-path="url(#clip902)" cx="1873.5" cy="177.079" r="14.4" fill="#e26f46" fill-rule="evenodd" fill-opacity="1" stroke="#000000" stroke-opacity="1" stroke-width="3.2"/>
<circle clip-path="url(#clip902)" cx="1961.49" cy="296.191" r="14.4" fill="#e26f46" fill-rule="evenodd" fill-opacity="1" stroke="#000000" stroke-opacity="1" stroke-width="3.2"/>
<circle clip-path="url(#clip902)" cx="1966.72" cy="424.384" r="14.4" fill="#e26f46" fill-rule="evenodd" fill-opacity="1" stroke="#000000" stroke-opacity="1" stroke-width="3.2"/>
<circle clip-path="url(#clip902)" cx="1799.38" cy="520.79" r="14.4" fill="#e26f46" fill-rule="evenodd" fill-opacity="1" stroke="#000000" stroke-opacity="1" stroke-width="3.2"/>
<circle clip-path="url(#clip902)" cx="1482.09" cy="715.535" r="14.4" fill="#e26f46" fill-rule="evenodd" fill-opacity="1" stroke="#000000" stroke-opacity="1" stroke-width="3.2"/>
<circle clip-path="url(#clip902)" cx="1720.59" cy="309.861" r="14.4" fill="#e26f46" fill-rule="evenodd" fill-opacity="1" stroke="#000000" stroke-opacity="1" stroke-width="3.2"/>
<circle clip-path="url(#clip902)" cx="1680.19" cy="342.868" r="14.4" fill="#e26f46" fill-rule="evenodd" fill-opacity="1" stroke="#000000" stroke-opacity="1" stroke-width="3.2"/>
<circle clip-path="url(#clip902)" cx="1797.42" cy="457.359" r="14.4" fill="#e26f46" fill-rule="evenodd" fill-opacity="1" stroke="#000000" stroke-opacity="1" stroke-width="3.2"/>
<circle clip-path="url(#clip902)" cx="1860.68" cy="579.02" r="14.4" fill="#e26f46" fill-rule="evenodd" fill-opacity="1" stroke="#000000" stroke-opacity="1" stroke-width="3.2"/>
<circle clip-path="url(#clip902)" cx="1959.75" cy="427.89" r="14.4" fill="#e26f46" fill-rule="evenodd" fill-opacity="1" stroke="#000000" stroke-opacity="1" stroke-width="3.2"/>
<circle clip-path="url(#clip902)" cx="2082.51" cy="712.47" r="14.4" fill="#e26f46" fill-rule="evenodd" fill-opacity="1" stroke="#000000" stroke-opacity="1" stroke-width="3.2"/>
<circle clip-path="url(#clip902)" cx="1992.9" cy="660.555" r="14.4" fill="#e26f46" fill-rule="evenodd" fill-opacity="1" stroke="#000000" stroke-opacity="1" stroke-width="3.2"/>
<circle clip-path="url(#clip902)" cx="2056.04" cy="393.125" r="14.4" fill="#e26f46" fill-rule="evenodd" fill-opacity="1" stroke="#000000" stroke-opacity="1" stroke-width="3.2"/>
<circle clip-path="url(#clip902)" cx="1609.01" cy="621.666" r="14.4" fill="#e26f46" fill-rule="evenodd" fill-opacity="1" stroke="#000000" stroke-opacity="1" stroke-width="3.2"/>
<circle clip-path="url(#clip902)" cx="1895.94" cy="681.398" r="14.4" fill="#e26f46" fill-rule="evenodd" fill-opacity="1" stroke="#000000" stroke-opacity="1" stroke-width="3.2"/>
<circle clip-path="url(#clip902)" cx="2109.24" cy="197.436" r="14.4" fill="#e26f46" fill-rule="evenodd" fill-opacity="1" stroke="#000000" stroke-opacity="1" stroke-width="3.2"/>
<circle clip-path="url(#clip902)" cx="1915.78" cy="327.836" r="14.4" fill="#e26f46" fill-rule="evenodd" fill-opacity="1" stroke="#000000" stroke-opacity="1" stroke-width="3.2"/>
<circle clip-path="url(#clip902)" cx="1502.02" cy="598.969" r="14.4" fill="#e26f46" fill-rule="evenodd" fill-opacity="1" stroke="#000000" stroke-opacity="1" stroke-width="3.2"/>
<circle clip-path="url(#clip902)" cx="1763.65" cy="295.639" r="14.4" fill="#e26f46" fill-rule="evenodd" fill-opacity="1" stroke="#000000" stroke-opacity="1" stroke-width="3.2"/>
<circle clip-path="url(#clip902)" cx="1868.38" cy="711.109" r="14.4" fill="#e26f46" fill-rule="evenodd" fill-opacity="1" stroke="#000000" stroke-opacity="1" stroke-width="3.2"/>
<polyline clip-path="url(#clip902)" style="stroke:#3da44d; stroke-linecap:round; stroke-linejoin:round; stroke-width:4; stroke-opacity:1; fill:none" points="218.281,87.9763 228.695,94.7991 239.108,101.622 249.522,108.445 259.936,115.268 270.349,122.09 280.763,128.913 291.176,135.736 301.59,142.559 312.004,149.382 322.417,156.204 332.831,163.027 343.244,169.85 353.658,176.673 364.072,183.496 374.485,190.318 384.899,197.141 395.312,203.964 405.726,210.787 416.14,217.61 426.553,224.432 436.967,231.255 447.38,238.078 457.794,244.901 468.208,251.724 478.621,258.547 489.035,265.369 499.448,272.192 509.862,279.015 520.276,285.838 530.689,292.661 541.103,299.483 551.516,306.306 561.93,313.129 572.344,319.952 582.757,326.775 593.171,333.597 603.584,340.42 613.998,347.243 624.412,354.066 634.825,360.889 645.239,367.712 655.652,374.534 666.066,381.357 676.479,388.18 686.893,395.003 697.307,401.826 707.72,408.648 718.134,415.471 728.547,422.294 738.961,429.117 749.375,435.94 759.788,442.762 770.202,449.585 780.615,456.408 791.029,463.231 801.443,470.054 811.856,476.877 822.27,483.699 832.683,490.522 843.097,497.345 853.511,504.168 863.924,510.991 874.338,517.813 884.751,524.636 895.165,531.459 905.579,538.282 915.992,545.105 926.406,551.927 936.819,558.75 947.233,565.573 957.647,572.396 968.06,579.219 978.474,586.041 988.887,592.864 999.301,599.687 1009.71,606.51 1020.13,613.333 1030.54,620.156 1040.96,626.978 1051.37,633.801 1061.78,640.624 1072.2,647.447 1082.61,654.27 1093.02,661.092 1103.44,667.915 1113.85,674.738 1124.26,681.561 1134.68,688.384 1145.09,695.206 1155.5,702.029 1165.92,708.852 1176.33,715.675 1186.75,722.498 1197.16,729.321 1207.57,736.143 1217.99,742.966 1228.4,749.789 1238.81,756.612 1249.23,763.435 1259.64,770.257 1270.05,777.08 1280.47,783.903 1290.88,790.726 1301.3,797.549 1311.71,804.371 1322.12,811.194 1332.54,818.017 1342.95,824.84 1353.36,831.663 1363.78,838.486 1374.19,845.308 1384.6,852.131 1395.02,858.954 1405.43,865.777 1415.84,872.6 1426.26,879.422 1436.67,886.245 1447.09,893.068 1457.5,899.891 1467.91,906.714 1478.33,913.536 1488.74,920.359 1499.15,927.182 1509.57,934.005 1519.98,940.828 1530.39,947.65 1540.81,954.473 1551.22,961.296 1561.64,968.119 1572.05,974.942 1582.46,981.765 1592.88,988.587 1603.29,995.41 1613.7,1002.23 1624.12,1009.06 1634.53,1015.88 1644.94,1022.7 1655.36,1029.52 1665.77,1036.35 1676.18,1043.17 1686.6,1049.99 1697.01,1056.82 1707.43,1063.64 1717.84,1070.46 1728.25,1077.28 1738.67,1084.11 1749.08,1090.93 1759.49,1097.75 1769.91,1104.58 1780.32,1111.4 1790.73,1118.22 1801.15,1125.04 1811.56,1131.87 1821.97,1138.69 1832.39,1145.51 1842.8,1152.33 1853.22,1159.16 1863.63,1165.98 1874.04,1172.8 1884.46,1179.63 1894.87,1186.45 1905.28,1193.27 1915.7,1200.09 1926.11,1206.92 1936.52,1213.74 1946.94,1220.56 1957.35,1227.39 1967.77,1234.21 1978.18,1241.03 1988.59,1247.85 1999.01,1254.68 2009.42,1261.5 2019.83,1268.32 2030.25,1275.15 2040.66,1281.97 2051.07,1288.79 2061.49,1295.61 2071.9,1302.44 2082.31,1309.26 2092.73,1316.08 2103.14,1322.91 2113.56,1329.73 2123.97,1336.55 2134.38,1343.37 2144.8,1350.2 2155.21,1357.02 2165.62,1363.84 2176.04,1370.66 2186.45,1377.49 2196.86,1384.31 2207.28,1391.13 2217.69,1397.96 2228.11,1404.78 2238.52,1411.6 2248.93,1418.42 2259.35,1425.25 2269.76,1432.07 2280.17,1438.89 2290.59,1445.72 "/>
<path clip-path="url(#clip900)" d="M229.334 1438.47 L610.479 1438.47 L610.479 1231.11 L229.334 1231.11  Z" fill="#ffffff" fill-rule="evenodd" fill-opacity="1"/>
<polyline clip-path="url(#clip900)" style="stroke:#000000; stroke-linecap:round; stroke-linejoin:round; stroke-width:4; stroke-opacity:1; fill:none" points="229.334,1438.47 610.479,1438.47 610.479,1231.11 229.334,1231.11 229.334,1438.47 "/>
<circle clip-path="url(#clip900)" cx="326.962" cy="1282.95" r="20.48" fill="#009af9" fill-rule="evenodd" fill-opacity="1" stroke="#000000" stroke-opacity="1" stroke-width="4.55111"/>
<path clip-path="url(#clip900)" d="M429.267 1269.52 L429.267 1282.5 L435.146 1282.5 Q438.41 1282.5 440.193 1280.81 Q441.975 1279.12 441.975 1276 Q441.975 1272.9 440.193 1271.21 Q438.41 1269.52 435.146 1269.52 L429.267 1269.52 M424.591 1265.67 L435.146 1265.67 Q440.956 1265.67 443.919 1268.31 Q446.906 1270.93 446.906 1276 Q446.906 1281.11 443.919 1283.73 Q440.956 1286.35 435.146 1286.35 L429.267 1286.35 L429.267 1300.23 L424.591 1300.23 L424.591 1265.67 Z" fill="#000000" fill-rule="nonzero" fill-opacity="1" /><circle clip-path="url(#clip900)" cx="326.962" cy="1334.79" r="20.48" fill="#e26f46" fill-rule="evenodd" fill-opacity="1" stroke="#000000" stroke-opacity="1" stroke-width="4.55111"/>
<path clip-path="url(#clip900)" d="M440.609 1320.69 Q435.517 1320.69 432.507 1324.48 Q429.521 1328.28 429.521 1334.83 Q429.521 1341.36 432.507 1345.15 Q435.517 1348.95 440.609 1348.95 Q445.702 1348.95 448.665 1345.15 Q451.651 1341.36 451.651 1334.83 Q451.651 1328.28 448.665 1324.48 Q445.702 1320.69 440.609 1320.69 M447.16 1351.45 L453.318 1358.19 L447.669 1358.19 L442.554 1352.65 Q441.79 1352.7 441.373 1352.72 Q440.98 1352.75 440.609 1352.75 Q433.318 1352.75 428.943 1347.88 Q424.591 1343 424.591 1334.83 Q424.591 1326.63 428.943 1321.77 Q433.318 1316.89 440.609 1316.89 Q447.878 1316.89 452.23 1321.77 Q456.581 1326.63 456.581 1334.83 Q456.581 1340.85 454.151 1345.13 Q451.743 1349.41 447.16 1351.45 Z" fill="#000000" fill-rule="nonzero" fill-opacity="1" /><polyline clip-path="url(#clip900)" style="stroke:#3da44d; stroke-linecap:round; stroke-linejoin:round; stroke-width:4; stroke-opacity:1; fill:none" points="253.741,1386.63 400.184,1386.63 "/>
<path clip-path="url(#clip900)" d="M437.994 1390.88 Q432.832 1390.88 430.841 1392.06 Q428.85 1393.24 428.85 1396.09 Q428.85 1398.36 430.332 1399.7 Q431.836 1401.02 434.406 1401.02 Q437.947 1401.02 440.077 1398.52 Q442.23 1396 442.23 1391.83 L442.23 1390.88 L437.994 1390.88 M446.489 1389.12 L446.489 1403.91 L442.23 1403.91 L442.23 1399.98 Q440.771 1402.34 438.595 1403.47 Q436.419 1404.59 433.271 1404.59 Q429.29 1404.59 426.929 1402.36 Q424.591 1400.12 424.591 1396.37 Q424.591 1391.99 427.507 1389.77 Q430.447 1387.55 436.257 1387.55 L442.23 1387.55 L442.23 1387.13 Q442.23 1384.19 440.285 1382.6 Q438.364 1380.97 434.869 1380.97 Q432.646 1380.97 430.54 1381.51 Q428.433 1382.04 426.489 1383.1 L426.489 1379.17 Q428.827 1378.27 431.026 1377.83 Q433.225 1377.36 435.308 1377.36 Q440.933 1377.36 443.711 1380.28 Q446.489 1383.2 446.489 1389.12 Z" fill="#000000" fill-rule="nonzero" fill-opacity="1" /><path clip-path="url(#clip900)" d="M459.29 1369.35 L459.29 1382.2 L455.355 1382.2 L455.355 1369.35 L459.29 1369.35 Z" fill="#000000" fill-rule="nonzero" fill-opacity="1" /><path clip-path="url(#clip900)" d="M466.442 1377.99 L486.674 1377.99 L486.674 1381.88 L470.655 1400.51 L486.674 1400.51 L486.674 1403.91 L465.864 1403.91 L465.864 1400.03 L481.882 1381.39 L466.442 1381.39 L466.442 1377.99 Z" fill="#000000" fill-rule="nonzero" fill-opacity="1" /><path clip-path="url(#clip900)" d="M508.803 1382.39 L538.479 1382.39 L538.479 1386.28 L508.803 1386.28 L508.803 1382.39 M508.803 1391.83 L538.479 1391.83 L538.479 1395.77 L508.803 1395.77 L508.803 1391.83 Z" fill="#000000" fill-rule="nonzero" fill-opacity="1" /><path clip-path="url(#clip900)" d="M581.65 1390.97 Q581.65 1386.28 579.706 1383.61 Q577.784 1380.93 574.405 1380.93 Q571.025 1380.93 569.081 1383.61 Q567.159 1386.28 567.159 1390.97 Q567.159 1395.67 569.081 1398.36 Q571.025 1401.02 574.405 1401.02 Q577.784 1401.02 579.706 1398.36 Q581.65 1395.67 581.65 1390.97 M567.159 1381.92 Q568.502 1379.61 570.539 1378.5 Q572.599 1377.36 575.446 1377.36 Q580.169 1377.36 583.108 1381.11 Q586.071 1384.86 586.071 1390.97 Q586.071 1397.09 583.108 1400.84 Q580.169 1404.59 575.446 1404.59 Q572.599 1404.59 570.539 1403.47 Q568.502 1402.34 567.159 1400.03 L567.159 1403.91 L562.877 1403.91 L562.877 1367.9 L567.159 1367.9 L567.159 1381.92 Z" fill="#000000" fill-rule="nonzero" fill-opacity="1" /></svg>
