<?xml version="1.0" encoding="utf-8"?>
<svg xmlns="http://www.w3.org/2000/svg" xmlns:xlink="http://www.w3.org/1999/xlink" width="600" height="400" viewBox="0 0 2400 1600">
<defs>
  <clipPath id="clip840">
    <rect x="0" y="0" width="2400" height="1600"/>
  </clipPath>
</defs>
<path clip-path="url(#clip840)" d="M0 1600 L2400 1600 L2400 0 L0 0  Z" fill="#ffffff" fill-rule="evenodd" fill-opacity="1"/>
<defs>
  <clipPath id="clip841">
    <rect x="480" y="0" width="1681" height="1600"/>
  </clipPath>
</defs>
<path clip-path="url(#clip840)" d="M156.112 1486.45 L2352.76 1486.45 L2352.76 47.2441 L156.112 47.2441  Z" fill="#ffffff" fill-rule="evenodd" fill-opacity="1"/>
<defs>
  <clipPath id="clip842">
    <rect x="156" y="47" width="2198" height="1440"/>
  </clipPath>
</defs>
<polyline clip-path="url(#clip842)" style="stroke:#000000; stroke-linecap:round; stroke-linejoin:round; stroke-width:2; stroke-opacity:0.1; fill:none" points="293.157,1486.45 293.157,47.2441 "/>
<polyline clip-path="url(#clip842)" style="stroke:#000000; stroke-linecap:round; stroke-linejoin:round; stroke-width:2; stroke-opacity:0.1; fill:none" points="736.256,1486.45 736.256,47.2441 "/>
<polyline clip-path="url(#clip842)" style="stroke:#000000; stroke-linecap:round; stroke-linejoin:round; stroke-width:2; stroke-opacity:0.1; fill:none" points="1179.35,1486.45 1179.35,47.2441 "/>
<polyline clip-path="url(#clip842)" style="stroke:#000000; stroke-linecap:round; stroke-linejoin:round; stroke-width:2; stroke-opacity:0.1; fill:none" points="1622.45,1486.45 1622.45,47.2441 "/>
<polyline clip-path="url(#clip842)" style="stroke:#000000; stroke-linecap:round; stroke-linejoin:round; stroke-width:2; stroke-opacity:0.1; fill:none" points="2065.55,1486.45 2065.55,47.2441 "/>
<polyline clip-path="url(#clip842)" style="stroke:#000000; stroke-linecap:round; stroke-linejoin:round; stroke-width:2; stroke-opacity:0.1; fill:none" points="156.112,1359.5 2352.76,1359.5 "/>
<polyline clip-path="url(#clip842)" style="stroke:#000000; stroke-linecap:round; stroke-linejoin:round; stroke-width:2; stroke-opacity:0.1; fill:none" points="156.112,1077.88 2352.76,1077.88 "/>
<polyline clip-path="url(#clip842)" style="stroke:#000000; stroke-linecap:round; stroke-linejoin:round; stroke-width:2; stroke-opacity:0.1; fill:none" points="156.112,796.267 2352.76,796.267 "/>
<polyline clip-path="url(#clip842)" style="stroke:#000000; stroke-linecap:round; stroke-linejoin:round; stroke-width:2; stroke-opacity:0.1; fill:none" points="156.112,514.651 2352.76,514.651 "/>
<polyline clip-path="url(#clip842)" style="stroke:#000000; stroke-linecap:round; stroke-linejoin:round; stroke-width:2; stroke-opacity:0.1; fill:none" points="156.112,233.034 2352.76,233.034 "/>
<polyline clip-path="url(#clip840)" style="stroke:#000000; stroke-linecap:round; stroke-linejoin:round; stroke-width:4; stroke-opacity:1; fill:none" points="156.112,1486.45 2352.76,1486.45 "/>
<polyline clip-path="url(#clip840)" style="stroke:#000000; stroke-linecap:round; stroke-linejoin:round; stroke-width:4; stroke-opacity:1; fill:none" points="293.157,1486.45 293.157,1467.55 "/>
<polyline clip-path="url(#clip840)" style="stroke:#000000; stroke-linecap:round; stroke-linejoin:round; stroke-width:4; stroke-opacity:1; fill:none" points="736.256,1486.45 736.256,1467.55 "/>
<polyline clip-path="url(#clip840)" style="stroke:#000000; stroke-linecap:round; stroke-linejoin:round; stroke-width:4; stroke-opacity:1; fill:none" points="1179.35,1486.45 1179.35,1467.55 "/>
<polyline clip-path="url(#clip840)" style="stroke:#000000; stroke-linecap:round; stroke-linejoin:round; stroke-width:4; stroke-opacity:1; fill:none" points="1622.45,1486.45 1622.45,1467.55 "/>
<polyline clip-path="url(#clip840)" style="stroke:#000000; stroke-linecap:round; stroke-linejoin:round; stroke-width:4; stroke-opacity:1; fill:none" points="2065.55,1486.45 2065.55,1467.55 "/>
<path clip-path="url(#clip840)" d="M270.542 1517.37 Q266.931 1517.37 265.102 1520.93 Q263.297 1524.47 263.297 1531.6 Q263.297 1538.71 265.102 1542.27 Q266.931 1545.82 270.542 1545.82 Q274.176 1545.82 275.982 1542.27 Q277.81 1538.71 277.81 1531.6 Q277.81 1524.47 275.982 1520.93 Q274.176 1517.37 270.542 1517.37 M270.542 1513.66 Q276.352 1513.66 279.408 1518.27 Q282.486 1522.85 282.486 1531.6 Q282.486 1540.33 279.408 1544.94 Q276.352 1549.52 270.542 1549.52 Q264.732 1549.52 261.653 1544.94 Q258.597 1540.33 258.597 1531.6 Q258.597 1522.85 261.653 1518.27 Q264.732 1513.66 270.542 1513.66 Z" fill="#000000" fill-rule="nonzero" fill-opacity="1" /><path clip-path="url(#clip840)" d="M290.704 1542.97 L295.588 1542.97 L295.588 1548.85 L290.704 1548.85 L290.704 1542.97 Z" fill="#000000" fill-rule="nonzero" fill-opacity="1" /><path clip-path="url(#clip840)" d="M315.773 1517.37 Q312.162 1517.37 310.333 1520.93 Q308.528 1524.47 308.528 1531.6 Q308.528 1538.71 310.333 1542.27 Q312.162 1545.82 315.773 1545.82 Q319.407 1545.82 321.213 1542.27 Q323.042 1538.71 323.042 1531.6 Q323.042 1524.47 321.213 1520.93 Q319.407 1517.37 315.773 1517.37 M315.773 1513.66 Q321.583 1513.66 324.639 1518.27 Q327.717 1522.85 327.717 1531.6 Q327.717 1540.33 324.639 1544.94 Q321.583 1549.52 315.773 1549.52 Q309.963 1549.52 306.884 1544.94 Q303.829 1540.33 303.829 1531.6 Q303.829 1522.85 306.884 1518.27 Q309.963 1513.66 315.773 1513.66 Z" fill="#000000" fill-rule="nonzero" fill-opacity="1" /><path clip-path="url(#clip840)" d="M714.138 1517.37 Q710.527 1517.37 708.698 1520.93 Q706.893 1524.47 706.893 1531.6 Q706.893 1538.71 708.698 1542.27 Q710.527 1545.82 714.138 1545.82 Q717.772 1545.82 719.578 1542.27 Q721.406 1538.71 721.406 1531.6 Q721.406 1524.47 719.578 1520.93 Q717.772 1517.37 714.138 1517.37 M714.138 1513.66 Q719.948 1513.66 723.004 1518.27 Q726.082 1522.85 726.082 1531.6 Q726.082 1540.33 723.004 1544.94 Q719.948 1549.52 714.138 1549.52 Q708.328 1549.52 705.249 1544.94 Q702.194 1540.33 702.194 1531.6 Q702.194 1522.85 705.249 1518.27 Q708.328 1513.66 714.138 1513.66 Z" fill="#000000" fill-rule="nonzero" fill-opacity="1" /><path clip-path="url(#clip840)" d="M734.3 1542.97 L739.184 1542.97 L739.184 1548.85 L734.3 1548.85 L734.3 1542.97 Z" fill="#000000" fill-rule="nonzero" fill-opacity="1" /><path clip-path="url(#clip840)" d="M749.416 1514.29 L767.772 1514.29 L767.772 1518.22 L753.698 1518.22 L753.698 1526.7 Q754.716 1526.35 755.735 1526.19 Q756.753 1526 757.772 1526 Q763.559 1526 766.939 1529.17 Q770.318 1532.34 770.318 1537.76 Q770.318 1543.34 766.846 1546.44 Q763.374 1549.52 757.054 1549.52 Q754.879 1549.52 752.61 1549.15 Q750.365 1548.78 747.957 1548.04 L747.957 1543.34 Q750.041 1544.47 752.263 1545.03 Q754.485 1545.58 756.962 1545.58 Q760.966 1545.58 763.304 1543.48 Q765.642 1541.37 765.642 1537.76 Q765.642 1534.15 763.304 1532.04 Q760.966 1529.94 756.962 1529.94 Q755.087 1529.94 753.212 1530.35 Q751.36 1530.77 749.416 1531.65 L749.416 1514.29 Z" fill="#000000" fill-rule="nonzero" fill-opacity="1" /><path clip-path="url(#clip840)" d="M1146.51 1544.91 L1154.15 1544.91 L1154.15 1518.55 L1145.84 1520.21 L1145.84 1515.95 L1154.1 1514.29 L1158.78 1514.29 L1158.78 1544.91 L1166.41 1544.91 L1166.41 1548.85 L1146.51 1548.85 L1146.51 1544.91 Z" fill="#000000" fill-rule="nonzero" fill-opacity="1" /><path clip-path="url(#clip840)" d="M1175.86 1542.97 L1180.74 1542.97 L1180.74 1548.85 L1175.86 1548.85 L1175.86 1542.97 Z" fill="#000000" fill-rule="nonzero" fill-opacity="1" /><path clip-path="url(#clip840)" d="M1200.93 1517.37 Q1197.32 1517.37 1195.49 1520.93 Q1193.68 1524.47 1193.68 1531.6 Q1193.68 1538.71 1195.49 1542.27 Q1197.32 1545.82 1200.93 1545.82 Q1204.56 1545.82 1206.37 1542.27 Q1208.2 1538.71 1208.2 1531.6 Q1208.2 1524.47 1206.37 1520.93 Q1204.56 1517.37 1200.93 1517.37 M1200.93 1513.66 Q1206.74 1513.66 1209.79 1518.27 Q1212.87 1522.85 1212.87 1531.6 Q1212.87 1540.33 1209.79 1544.94 Q1206.74 1549.52 1200.93 1549.52 Q1195.12 1549.52 1192.04 1544.94 Q1188.98 1540.33 1188.98 1531.6 Q1188.98 1522.85 1192.04 1518.27 Q1195.12 1513.66 1200.93 1513.66 Z" fill="#000000" fill-rule="nonzero" fill-opacity="1" /><path clip-path="url(#clip840)" d="M1590.1 1544.91 L1597.74 1544.91 L1597.74 1518.55 L1589.43 1520.21 L1589.43 1515.95 L1597.7 1514.29 L1602.37 1514.29 L1602.37 1544.91 L1610.01 1544.91 L1610.01 1548.85 L1590.1 1548.85 L1590.1 1544.91 Z" fill="#000000" fill-rule="nonzero" fill-opacity="1" /><path clip-path="url(#clip840)" d="M1619.46 1542.97 L1624.34 1542.97 L1624.34 1548.85 L1619.46 1548.85 L1619.46 1542.97 Z" fill="#000000" fill-rule="nonzero" fill-opacity="1" /><path clip-path="url(#clip840)" d="M1634.57 1514.29 L1652.93 1514.29 L1652.93 1518.22 L1638.85 1518.22 L1638.85 1526.7 Q1639.87 1526.35 1640.89 1526.19 Q1641.91 1526 1642.93 1526 Q1648.71 1526 1652.09 1529.17 Q1655.47 1532.34 1655.47 1537.76 Q1655.47 1543.34 1652 1546.44 Q1648.53 1549.52 1642.21 1549.52 Q1640.03 1549.52 1637.77 1549.15 Q1635.52 1548.78 1633.11 1548.04 L1633.11 1543.34 Q1635.2 1544.47 1637.42 1545.03 Q1639.64 1545.58 1642.12 1545.58 Q1646.12 1545.58 1648.46 1543.48 Q1650.8 1541.37 1650.8 1537.76 Q1650.8 1534.15 1648.46 1532.04 Q1646.12 1529.94 1642.12 1529.94 Q1640.24 1529.94 1638.37 1530.35 Q1636.52 1530.77 1634.57 1531.65 L1634.57 1514.29 Z" fill="#000000" fill-rule="nonzero" fill-opacity="1" /><path clip-path="url(#clip840)" d="M2036.79 1544.91 L2053.11 1544.91 L2053.11 1548.85 L2031.16 1548.85 L2031.16 1544.91 Q2033.83 1542.16 2038.41 1537.53 Q2043.02 1532.88 2044.2 1531.53 Q2046.44 1529.01 2047.32 1527.27 Q2048.22 1525.51 2048.22 1523.82 Q2048.22 1521.07 2046.28 1519.33 Q2044.36 1517.6 2041.26 1517.6 Q2039.06 1517.6 2036.6 1518.36 Q2034.17 1519.13 2031.4 1520.68 L2031.4 1515.95 Q2034.22 1514.82 2036.67 1514.24 Q2039.13 1513.66 2041.16 1513.66 Q2046.54 1513.66 2049.73 1516.35 Q2052.92 1519.03 2052.92 1523.52 Q2052.92 1525.65 2052.11 1527.57 Q2051.33 1529.47 2049.22 1532.07 Q2048.64 1532.74 2045.54 1535.95 Q2042.44 1539.15 2036.79 1544.91 Z" fill="#000000" fill-rule="nonzero" fill-opacity="1" /><path clip-path="url(#clip840)" d="M2062.92 1542.97 L2067.81 1542.97 L2067.81 1548.85 L2062.92 1548.85 L2062.92 1542.97 Z" fill="#000000" fill-rule="nonzero" fill-opacity="1" /><path clip-path="url(#clip840)" d="M2087.99 1517.37 Q2084.38 1517.37 2082.55 1520.93 Q2080.75 1524.47 2080.75 1531.6 Q2080.75 1538.71 2082.55 1542.27 Q2084.38 1545.82 2087.99 1545.82 Q2091.63 1545.82 2093.43 1542.27 Q2095.26 1538.71 2095.26 1531.6 Q2095.26 1524.47 2093.43 1520.93 Q2091.63 1517.37 2087.99 1517.37 M2087.99 1513.66 Q2093.8 1513.66 2096.86 1518.27 Q2099.94 1522.85 2099.94 1531.6 Q2099.94 1540.33 2096.86 1544.94 Q2093.8 1549.52 2087.99 1549.52 Q2082.18 1549.52 2079.1 1544.94 Q2076.05 1540.33 2076.05 1531.6 Q2076.05 1522.85 2079.1 1518.27 Q2082.18 1513.66 2087.99 1513.66 Z" fill="#000000" fill-rule="nonzero" fill-opacity="1" /><polyline clip-path="url(#clip840)" style="stroke:#000000; stroke-linecap:round; stroke-linejoin:round; stroke-width:4; stroke-opacity:1; fill:none" points="156.112,1486.45 156.112,47.2441 "/>
<polyline clip-path="url(#clip840)" style="stroke:#000000; stroke-linecap:round; stroke-linejoin:round; stroke-width:4; stroke-opacity:1; fill:none" points="156.112,1359.5 175.01,1359.5 "/>
<polyline clip-path="url(#clip840)" style="stroke:#000000; stroke-linecap:round; stroke-linejoin:round; stroke-width:4; stroke-opacity:1; fill:none" points="156.112,1077.88 175.01,1077.88 "/>
<polyline clip-path="url(#clip840)" style="stroke:#000000; stroke-linecap:round; stroke-linejoin:round; stroke-width:4; stroke-opacity:1; fill:none" points="156.112,796.267 175.01,796.267 "/>
<polyline clip-path="url(#clip840)" style="stroke:#000000; stroke-linecap:round; stroke-linejoin:round; stroke-width:4; stroke-opacity:1; fill:none" points="156.112,514.651 175.01,514.651 "/>
<polyline clip-path="url(#clip840)" style="stroke:#000000; stroke-linecap:round; stroke-linejoin:round; stroke-width:4; stroke-opacity:1; fill:none" points="156.112,233.034 175.01,233.034 "/>
<path clip-path="url(#clip840)" d="M62.9365 1345.3 Q59.3254 1345.3 57.4967 1348.86 Q55.6912 1352.41 55.6912 1359.53 Q55.6912 1366.64 57.4967 1370.21 Q59.3254 1373.75 62.9365 1373.75 Q66.5707 1373.75 68.3763 1370.21 Q70.205 1366.64 70.205 1359.53 Q70.205 1352.41 68.3763 1348.86 Q66.5707 1345.3 62.9365 1345.3 M62.9365 1341.6 Q68.7467 1341.6 71.8022 1346.2 Q74.8809 1350.78 74.8809 1359.53 Q74.8809 1368.26 71.8022 1372.87 Q68.7467 1377.45 62.9365 1377.45 Q57.1264 1377.45 54.0477 1372.87 Q50.9921 1368.26 50.9921 1359.53 Q50.9921 1350.78 54.0477 1346.2 Q57.1264 1341.6 62.9365 1341.6 Z" fill="#000000" fill-rule="nonzero" fill-opacity="1" /><path clip-path="url(#clip840)" d="M83.0984 1370.9 L87.9827 1370.9 L87.9827 1376.78 L83.0984 1376.78 L83.0984 1370.9 Z" fill="#000000" fill-rule="nonzero" fill-opacity="1" /><path clip-path="url(#clip840)" d="M108.168 1345.3 Q104.557 1345.3 102.728 1348.86 Q100.922 1352.41 100.922 1359.53 Q100.922 1366.64 102.728 1370.21 Q104.557 1373.75 108.168 1373.75 Q111.802 1373.75 113.608 1370.21 Q115.436 1366.64 115.436 1359.53 Q115.436 1352.41 113.608 1348.86 Q111.802 1345.3 108.168 1345.3 M108.168 1341.6 Q113.978 1341.6 117.033 1346.2 Q120.112 1350.78 120.112 1359.53 Q120.112 1368.26 117.033 1372.87 Q113.978 1377.45 108.168 1377.45 Q102.358 1377.45 99.2789 1372.87 Q96.2234 1368.26 96.2234 1359.53 Q96.2234 1350.78 99.2789 1346.2 Q102.358 1341.6 108.168 1341.6 Z" fill="#000000" fill-rule="nonzero" fill-opacity="1" /><path clip-path="url(#clip840)" d="M63.9319 1063.68 Q60.3208 1063.68 58.4921 1067.25 Q56.6865 1070.79 56.6865 1077.92 Q56.6865 1085.02 58.4921 1088.59 Q60.3208 1092.13 63.9319 1092.13 Q67.5661 1092.13 69.3717 1088.59 Q71.2004 1085.02 71.2004 1077.92 Q71.2004 1070.79 69.3717 1067.25 Q67.5661 1063.68 63.9319 1063.68 M63.9319 1059.98 Q69.742 1059.98 72.7976 1064.59 Q75.8763 1069.17 75.8763 1077.92 Q75.8763 1086.65 72.7976 1091.25 Q69.742 1095.84 63.9319 1095.84 Q58.1217 1095.84 55.043 1091.25 Q51.9875 1086.65 51.9875 1077.92 Q51.9875 1069.17 55.043 1064.59 Q58.1217 1059.98 63.9319 1059.98 Z" fill="#000000" fill-rule="nonzero" fill-opacity="1" /><path clip-path="url(#clip840)" d="M84.0938 1089.28 L88.978 1089.28 L88.978 1095.16 L84.0938 1095.16 L84.0938 1089.28 Z" fill="#000000" fill-rule="nonzero" fill-opacity="1" /><path clip-path="url(#clip840)" d="M99.2095 1060.6 L117.566 1060.6 L117.566 1064.54 L103.492 1064.54 L103.492 1073.01 Q104.51 1072.66 105.529 1072.5 Q106.547 1072.32 107.566 1072.32 Q113.353 1072.32 116.733 1075.49 Q120.112 1078.66 120.112 1084.08 Q120.112 1089.65 116.64 1092.76 Q113.168 1095.84 106.848 1095.84 Q104.672 1095.84 102.404 1095.46 Q100.159 1095.09 97.7511 1094.35 L97.7511 1089.65 Q99.8345 1090.79 102.057 1091.34 Q104.279 1091.9 106.756 1091.9 Q110.76 1091.9 113.098 1089.79 Q115.436 1087.69 115.436 1084.08 Q115.436 1080.46 113.098 1078.36 Q110.76 1076.25 106.756 1076.25 Q104.881 1076.25 103.006 1076.67 Q101.154 1077.09 99.2095 1077.96 L99.2095 1060.6 Z" fill="#000000" fill-rule="nonzero" fill-opacity="1" /><path clip-path="url(#clip840)" d="M53.7467 809.612 L61.3856 809.612 L61.3856 783.246 L53.0754 784.913 L53.0754 780.654 L61.3393 778.987 L66.0152 778.987 L66.0152 809.612 L73.654 809.612 L73.654 813.547 L53.7467 813.547 L53.7467 809.612 Z" fill="#000000" fill-rule="nonzero" fill-opacity="1" /><path clip-path="url(#clip840)" d="M83.0984 807.668 L87.9827 807.668 L87.9827 813.547 L83.0984 813.547 L83.0984 807.668 Z" fill="#000000" fill-rule="nonzero" fill-opacity="1" /><path clip-path="url(#clip840)" d="M108.168 782.066 Q104.557 782.066 102.728 785.631 Q100.922 789.172 100.922 796.302 Q100.922 803.408 102.728 806.973 Q104.557 810.515 108.168 810.515 Q111.802 810.515 113.608 806.973 Q115.436 803.408 115.436 796.302 Q115.436 789.172 113.608 785.631 Q111.802 782.066 108.168 782.066 M108.168 778.362 Q113.978 778.362 117.033 782.969 Q120.112 787.552 120.112 796.302 Q120.112 805.029 117.033 809.635 Q113.978 814.219 108.168 814.219 Q102.358 814.219 99.2789 809.635 Q96.2234 805.029 96.2234 796.302 Q96.2234 787.552 99.2789 782.969 Q102.358 778.362 108.168 778.362 Z" fill="#000000" fill-rule="nonzero" fill-opacity="1" /><path clip-path="url(#clip840)" d="M54.7421 527.996 L62.381 527.996 L62.381 501.63 L54.0708 503.297 L54.0708 499.037 L62.3347 497.371 L67.0106 497.371 L67.0106 527.996 L74.6494 527.996 L74.6494 531.931 L54.7421 531.931 L54.7421 527.996 Z" fill="#000000" fill-rule="nonzero" fill-opacity="1" /><path clip-path="url(#clip840)" d="M84.0938 526.051 L88.978 526.051 L88.978 531.931 L84.0938 531.931 L84.0938 526.051 Z" fill="#000000" fill-rule="nonzero" fill-opacity="1" /><path clip-path="url(#clip840)" d="M99.2095 497.371 L117.566 497.371 L117.566 501.306 L103.492 501.306 L103.492 509.778 Q104.51 509.431 105.529 509.269 Q106.547 509.084 107.566 509.084 Q113.353 509.084 116.733 512.255 Q120.112 515.426 120.112 520.843 Q120.112 526.422 116.64 529.523 Q113.168 532.602 106.848 532.602 Q104.672 532.602 102.404 532.232 Q100.159 531.861 97.7511 531.121 L97.7511 526.422 Q99.8345 527.556 102.057 528.111 Q104.279 528.667 106.756 528.667 Q110.76 528.667 113.098 526.56 Q115.436 524.454 115.436 520.843 Q115.436 517.232 113.098 515.125 Q110.76 513.019 106.756 513.019 Q104.881 513.019 103.006 513.435 Q101.154 513.852 99.2095 514.732 L99.2095 497.371 Z" fill="#000000" fill-rule="nonzero" fill-opacity="1" /><path clip-path="url(#clip840)" d="M56.9643 246.379 L73.2837 246.379 L73.2837 250.314 L51.3393 250.314 L51.3393 246.379 Q54.0014 243.624 58.5847 238.995 Q63.1911 234.342 64.3717 233 Q66.617 230.476 67.4967 228.74 Q68.3994 226.981 68.3994 225.291 Q68.3994 222.537 66.455 220.801 Q64.5337 219.064 61.4319 219.064 Q59.2328 219.064 56.7791 219.828 Q54.3486 220.592 51.5708 222.143 L51.5708 217.421 Q54.3949 216.287 56.8486 215.708 Q59.3023 215.129 61.3393 215.129 Q66.7096 215.129 69.9041 217.814 Q73.0985 220.5 73.0985 224.99 Q73.0985 227.12 72.2883 229.041 Q71.5013 230.939 69.3948 233.532 Q68.8161 234.203 65.7143 237.421 Q62.6124 240.615 56.9643 246.379 Z" fill="#000000" fill-rule="nonzero" fill-opacity="1" /><path clip-path="url(#clip840)" d="M83.0984 244.435 L87.9827 244.435 L87.9827 250.314 L83.0984 250.314 L83.0984 244.435 Z" fill="#000000" fill-rule="nonzero" fill-opacity="1" /><path clip-path="url(#clip840)" d="M108.168 218.833 Q104.557 218.833 102.728 222.398 Q100.922 225.939 100.922 233.069 Q100.922 240.175 102.728 243.74 Q104.557 247.282 108.168 247.282 Q111.802 247.282 113.608 243.74 Q115.436 240.175 115.436 233.069 Q115.436 225.939 113.608 222.398 Q111.802 218.833 108.168 218.833 M108.168 215.129 Q113.978 215.129 117.033 219.736 Q120.112 224.319 120.112 233.069 Q120.112 241.796 117.033 246.402 Q113.978 250.986 108.168 250.986 Q102.358 250.986 99.2789 246.402 Q96.2234 241.796 96.2234 233.069 Q96.2234 224.319 99.2789 219.736 Q102.358 215.129 108.168 215.129 Z" fill="#000000" fill-rule="nonzero" fill-opacity="1" /><circle clip-path="url(#clip842)" cx="835.12" cy="867.479" r="14.4" fill="#009af9" fill-rule="evenodd" fill-opacity="1" stroke="#000000" stroke-opacity="1" stroke-width="3.2"/>
<circle clip-path="url(#clip842)" cx="503.982" cy="1116.68" r="14.4" fill="#009af9" fill-rule="evenodd" fill-opacity="1" stroke="#000000" stroke-opacity="1" stroke-width="3.2"/>
<circle clip-path="url(#clip842)" cx="708.925" cy="856.653" r="14.4" fill="#009af9" fill-rule="evenodd" fill-opacity="1" stroke="#000000" stroke-opacity="1" stroke-width="3.2"/>
<circle clip-path="url(#clip842)" cx="878.41" cy="818.429" r="14.4" fill="#009af9" fill-rule="evenodd" fill-opacity="1" stroke="#000000" stroke-opacity="1" stroke-width="3.2"/>
<circle clip-path="url(#clip842)" cx="1093.61" cy="857.964" r="14.4" fill="#009af9" fill-rule="evenodd" fill-opacity="1" stroke="#000000" stroke-opacity="1" stroke-width="3.2"/>
<circle clip-path="url(#clip842)" cx="1149.07" cy="870.198" r="14.4" fill="#009af9" fill-rule="evenodd" fill-opacity="1" stroke="#000000" stroke-opacity="1" stroke-width="3.2"/>
<circle clip-path="url(#clip842)" cx="299.039" cy="1190.29" r="14.4" fill="#009af9" fill-rule="evenodd" fill-opacity="1" stroke="#000000" stroke-opacity="1" stroke-width="3.2"/>
<circle clip-path="url(#clip842)" cx="593.585" cy="1121.75" r="14.4" fill="#009af9" fill-rule="evenodd" fill-opacity="1" stroke="#000000" stroke-opacity="1" stroke-width="3.2"/>
<circle clip-path="url(#clip842)" cx="1164.24" cy="804.099" r="14.4" fill="#009af9" fill-rule="evenodd" fill-opacity="1" stroke="#000000" stroke-opacity="1" stroke-width="3.2"/>
<circle clip-path="url(#clip842)" cx="432.964" cy="1349.37" r="14.4" fill="#009af9" fill-rule="evenodd" fill-opacity="1" stroke="#000000" stroke-opacity="1" stroke-width="3.2"/>
<circle clip-path="url(#clip842)" cx="1369.35" cy="357.883" r="14.4" fill="#e26f46" fill-rule="evenodd" fill-opacity="1" stroke="#000000" stroke-opacity="1" stroke-width="3.2"/>
<circle clip-path="url(#clip842)" cx="1288.5" cy="533.607" r="14.4" fill="#e26f46" fill-rule="evenodd" fill-opacity="1" stroke="#000000" stroke-opacity="1" stroke-width="3.2"/>
<circle clip-path="url(#clip842)" cx="1635.13" cy="417.397" r="14.4" fill="#e26f46" fill-rule="evenodd" fill-opacity="1" stroke="#000000" stroke-opacity="1" stroke-width="3.2"/>
<circle clip-path="url(#clip842)" cx="1746.62" cy="483.761" r="14.4" fill="#e26f46" fill-rule="evenodd" fill-opacity="1" stroke="#000000" stroke-opacity="1" stroke-width="3.2"/>
<circle clip-path="url(#clip842)" cx="1993.99" cy="565.258" r="14.4" fill="#e26f46" fill-rule="evenodd" fill-opacity="1" stroke="#000000" stroke-opacity="1" stroke-width="3.2"/>
<circle clip-path="url(#clip842)" cx="2121.53" cy="191.975" r="14.4" fill="#e26f46" fill-rule="evenodd" fill-opacity="1" stroke="#000000" stroke-opacity="1" stroke-width="3.2"/>
<circle clip-path="url(#clip842)" cx="1790.68" cy="556.966" r="14.4" fill="#e26f46" fill-rule="evenodd" fill-opacity="1" stroke="#000000" stroke-opacity="1" stroke-width="3.2"/>
<circle clip-path="url(#clip842)" cx="1315.76" cy="710.684" r="14.4" fill="#e26f46" fill-rule="evenodd" fill-opacity="1" stroke="#000000" stroke-opacity="1" stroke-width="3.2"/>
<circle clip-path="url(#clip842)" cx="1300.84" cy="273.772" r="14.4" fill="#e26f46" fill-rule="evenodd" fill-opacity="1" stroke="#000000" stroke-opacity="1" stroke-width="3.2"/>
<circle clip-path="url(#clip842)" cx="1327.59" cy="414.627" r="14.4" fill="#e26f46" fill-rule="evenodd" fill-opacity="1" stroke="#000000" stroke-opacity="1" stroke-width="3.2"/>
<polyline clip-path="url(#clip842)" style="stroke:#3da44d; stroke-linecap:round; stroke-linejoin:round; stroke-width:4; stroke-opacity:1; fill:none" points="218.281,87.9763 228.695,94.7991 239.108,101.622 249.522,108.445 259.936,115.268 270.349,122.09 280.763,128.913 291.176,135.736 301.59,142.559 312.004,149.382 322.417,156.204 332.831,163.027 343.244,169.85 353.658,176.673 364.072,183.496 374.485,190.318 384.899,197.141 395.312,203.964 405.726,210.787 416.14,217.61 426.553,224.432 436.967,231.255 447.38,238.078 457.794,244.901 468.208,251.724 478.621,258.547 489.035,265.369 499.448,272.192 509.862,279.015 520.276,285.838 530.689,292.661 541.103,299.483 551.516,306.306 561.93,313.129 572.344,319.952 582.757,326.775 593.171,333.597 603.584,340.42 613.998,347.243 624.412,354.066 634.825,360.889 645.239,367.712 655.652,374.534 666.066,381.357 676.479,388.18 686.893,395.003 697.307,401.826 707.72,408.648 718.134,415.471 728.547,422.294 738.961,429.117 749.375,435.94 759.788,442.762 770.202,449.585 780.615,456.408 791.029,463.231 801.443,470.054 811.856,476.877 822.27,483.699 832.683,490.522 843.097,497.345 853.511,504.168 863.924,510.991 874.338,517.813 884.751,524.636 895.165,531.459 905.579,538.282 915.992,545.105 926.406,551.927 936.819,558.75 947.233,565.573 957.647,572.396 968.06,579.219 978.474,586.041 988.887,592.864 999.301,599.687 1009.71,606.51 1020.13,613.333 1030.54,620.156 1040.96,626.978 1051.37,633.801 1061.78,640.624 1072.2,647.447 1082.61,654.27 1093.02,661.092 1103.44,667.915 1113.85,674.738 1124.26,681.561 1134.68,688.384 1145.09,695.206 1155.5,702.029 1165.92,708.852 1176.33,715.675 1186.75,722.498 1197.16,729.321 1207.57,736.143 1217.99,742.966 1228.4,749.789 1238.81,756.612 1249.23,763.435 1259.64,770.257 1270.05,777.08 1280.47,783.903 1290.88,790.726 1301.3,797.549 1311.71,804.371 1322.12,811.194 1332.54,818.017 1342.95,824.84 1353.36,831.663 1363.78,838.486 1374.19,845.308 1384.6,852.131 1395.02,858.954 1405.43,865.777 1415.84,872.6 1426.26,879.422 1436.67,886.245 1447.09,893.068 1457.5,899.891 1467.91,906.714 1478.33,913.536 1488.74,920.359 1499.15,927.182 1509.57,934.005 1519.98,940.828 1530.39,947.65 1540.81,954.473 1551.22,961.296 1561.64,968.119 1572.05,974.942 1582.46,981.765 1592.88,988.587 1603.29,995.41 1613.7,1002.23 1624.12,1009.06 1634.53,1015.88 1644.94,1022.7 1655.36,1029.52 1665.77,1036.35 1676.18,1043.17 1686.6,1049.99 1697.01,1056.82 1707.43,1063.64 1717.84,1070.46 1728.25,1077.28 1738.67,1084.11 1749.08,1090.93 1759.49,1097.75 1769.91,1104.58 1780.32,1111.4 1790.73,1118.22 1801.15,1125.04 1811.56,1131.87 1821.97,1138.69 1832.39,1145.51 1842.8,1152.33 1853.22,1159.16 1863.63,1165.98 1874.04,1172.8 1884.46,1179.63 1894.87,1186.45 1905.28,1193.27 1915.7,1200.09 1926.11,1206.92 1936.52,1213.74 1946.94,1220.56 1957.35,1227.39 1967.77,1234.21 1978.18,1241.03 1988.59,1247.85 1999.01,1254.68 2009.42,1261.5 2019.83,1268.32 2030.25,1275.15 2040.66,1281.97 2051.07,1288.79 2061.49,1295.61 2071.9,1302.44 2082.31,1309.26 2092.73,1316.08 2103.14,1322.91 2113.56,1329.73 2123.97,1336.55 2134.38,1343.37 2144.8,1350.2 2155.21,1357.02 2165.62,1363.84 2176.04,1370.66 2186.45,1377.49 2196.86,1384.31 2207.28,1391.13 2217.69,1397.96 2228.11,1404.78 2238.52,1411.6 2248.93,1418.42 2259.35,1425.25 2269.76,1432.07 2280.17,1438.89 2290.59,1445.72 "/>
<path clip-path="url(#clip840)" d="M1858.67 302.578 L2279.53 302.578 L2279.53 95.2176 L1858.67 95.2176  Z" fill="#ffffff" fill-rule="evenodd" fill-opacity="1"/>
<polyline clip-path="url(#clip840)" style="stroke:#000000; stroke-linecap:round; stroke-linejoin:round; stroke-width:4; stroke-opacity:1; fill:none" points="1858.67,302.578 2279.53,302.578 2279.53,95.2176 1858.67,95.2176 1858.67,302.578 "/>
<circle clip-path="url(#clip840)" cx="1956.3" cy="147.058" r="20.48" fill="#009af9" fill-rule="evenodd" fill-opacity="1" stroke="#000000" stroke-opacity="1" stroke-width="4.55111"/>
<path clip-path="url(#clip840)" d="M2058.6 133.62 L2058.6 146.606 L2064.48 146.606 Q2067.74 146.606 2069.53 144.916 Q2071.31 143.227 2071.31 140.102 Q2071.31 137 2069.53 135.31 Q2067.74 133.62 2064.48 133.62 L2058.6 133.62 M2053.92 129.778 L2064.48 129.778 Q2070.29 129.778 2073.25 132.416 Q2076.24 135.032 2076.24 140.102 Q2076.24 145.217 2073.25 147.833 Q2070.29 150.449 2064.48 150.449 L2058.6 150.449 L2058.6 164.338 L2053.92 164.338 L2053.92 129.778 Z" fill="#000000" fill-rule="nonzero" fill-opacity="1" /><circle clip-path="url(#clip840)" cx="1956.3" cy="198.898" r="20.48" fill="#e26f46" fill-rule="evenodd" fill-opacity="1" stroke="#000000" stroke-opacity="1" stroke-width="4.55111"/>
<path clip-path="url(#clip840)" d="M2069.94 184.789 Q2064.85 184.789 2061.84 188.585 Q2058.86 192.381 2058.86 198.932 Q2058.86 205.46 2061.84 209.256 Q2064.85 213.053 2069.94 213.053 Q2075.04 213.053 2078 209.256 Q2080.98 205.46 2080.98 198.932 Q2080.98 192.381 2078 188.585 Q2075.04 184.789 2069.94 184.789 M2076.49 215.553 L2082.65 222.289 L2077 222.289 L2071.89 216.756 Q2071.12 216.803 2070.71 216.826 Q2070.31 216.849 2069.94 216.849 Q2062.65 216.849 2058.28 211.988 Q2053.92 207.104 2053.92 198.932 Q2053.92 190.738 2058.28 185.877 Q2062.65 180.993 2069.94 180.993 Q2077.21 180.993 2081.56 185.877 Q2085.92 190.738 2085.92 198.932 Q2085.92 204.951 2083.48 209.233 Q2081.08 213.516 2076.49 215.553 Z" fill="#000000" fill-rule="nonzero" fill-opacity="1" /><polyline clip-path="url(#clip840)" style="stroke:#3da44d; stroke-linecap:round; stroke-linejoin:round; stroke-width:4; stroke-opacity:1; fill:none" points="1883.07,250.738 2029.52,250.738 "/>
<path clip-path="url(#clip840)" d="M2067.33 254.985 Q2062.17 254.985 2060.17 256.166 Q2058.18 257.346 2058.18 260.194 Q2058.18 262.462 2059.67 263.805 Q2061.17 265.124 2063.74 265.124 Q2067.28 265.124 2069.41 262.624 Q2071.56 260.101 2071.56 255.934 L2071.56 254.985 L2067.33 254.985 M2075.82 253.226 L2075.82 268.018 L2071.56 268.018 L2071.56 264.082 Q2070.11 266.443 2067.93 267.578 Q2065.75 268.689 2062.61 268.689 Q2058.62 268.689 2056.26 266.467 Q2053.92 264.221 2053.92 260.471 Q2053.92 256.096 2056.84 253.874 Q2059.78 251.652 2065.59 251.652 L2071.56 251.652 L2071.56 251.235 Q2071.56 248.295 2069.62 246.698 Q2067.7 245.078 2064.2 245.078 Q2061.98 245.078 2059.87 245.61 Q2057.77 246.143 2055.82 247.207 L2055.82 243.272 Q2058.16 242.37 2060.36 241.93 Q2062.56 241.467 2064.64 241.467 Q2070.27 241.467 2073.04 244.383 Q2075.82 247.3 2075.82 253.226 Z" fill="#000000" fill-rule="nonzero" fill-opacity="1" /><path clip-path="url(#clip840)" d="M2088.62 233.458 L2088.62 246.305 L2084.69 246.305 L2084.69 233.458 L2088.62 233.458 Z" fill="#000000" fill-rule="nonzero" fill-opacity="1" /><path clip-path="url(#clip840)" d="M2095.78 242.092 L2116.01 242.092 L2116.01 245.981 L2099.99 264.615 L2116.01 264.615 L2116.01 268.018 L2095.2 268.018 L2095.2 264.129 L2111.22 245.495 L2095.78 245.495 L2095.78 242.092 Z" fill="#000000" fill-rule="nonzero" fill-opacity="1" /><path clip-path="url(#clip840)" d="M2138.14 246.49 L2167.81 246.49 L2167.81 250.379 L2138.14 250.379 L2138.14 246.49 M2138.14 255.934 L2167.81 255.934 L2167.81 259.869 L2138.14 259.869 L2138.14 255.934 Z" fill="#000000" fill-rule="nonzero" fill-opacity="1" /><path clip-path="url(#clip840)" d="M2177.86 246.49 L2207.53 246.49 L2207.53 250.379 L2177.86 250.379 L2177.86 246.49 M2177.86 255.934 L2207.53 255.934 L2207.53 259.869 L2177.86 259.869 L2177.86 255.934 Z" fill="#000000" fill-rule="nonzero" fill-opacity="1" /><path clip-path="url(#clip840)" d="M2250.71 255.078 Q2250.71 250.379 2248.76 247.717 Q2246.84 245.032 2243.46 245.032 Q2240.08 245.032 2238.14 247.717 Q2236.22 250.379 2236.22 255.078 Q2236.22 259.777 2238.14 262.462 Q2240.08 265.124 2243.46 265.124 Q2246.84 265.124 2248.76 262.462 Q2250.71 259.777 2250.71 255.078 M2236.22 246.027 Q2237.56 243.712 2239.59 242.601 Q2241.66 241.467 2244.5 241.467 Q2249.22 241.467 2252.16 245.217 Q2255.13 248.967 2255.13 255.078 Q2255.13 261.189 2252.16 264.939 Q2249.22 268.689 2244.5 268.689 Q2241.66 268.689 2239.59 267.578 Q2237.56 266.443 2236.22 264.129 L2236.22 268.018 L2231.93 268.018 L2231.93 231.999 L2236.22 231.999 L2236.22 246.027 Z" fill="#000000" fill-rule="nonzero" fill-opacity="1" /></svg>
